<svg version="1.1" id="Layer_1" xmlns="http://www.w3.org/2000/svg" xmlns:xlink="http://www.w3.org/1999/xlink" x="0px" y="0px"
	 width="100%" viewBox="0 0 204 192" enable-background="new 0 0 204 192" xml:space="preserve">
<path fill="#010000" opacity="1.000000" stroke="none" 
	d="
M132.000000,193.000000 
	C88.000000,193.000000 44.500004,193.000000 1.000006,193.000000 
	C1.000004,129.000000 1.000004,65.000015 1.000002,1.000015 
	C68.999992,1.000010 136.999985,1.000010 204.999969,1.000005 
	C204.999985,64.999985 204.999985,128.999969 205.000000,192.999969 
	C180.833328,193.000000 156.666672,193.000000 132.000000,193.000000 
M64.880241,43.556015 
	C64.845886,70.049202 64.801605,96.542381 64.781456,123.035576 
	C64.771690,135.865814 64.897766,148.697021 64.765335,161.525772 
	C64.727104,165.228973 65.835167,166.587357 69.702858,166.105408 
	C76.802734,165.220718 83.954285,164.750824 91.732994,163.779419 
	C91.889908,160.843277 92.046829,157.907135 92.277084,154.039642 
	C92.269836,142.030823 92.262581,130.021988 92.522881,117.326195 
	C93.020164,115.212013 93.517441,113.097839 94.216057,111.701385 
	C99.848755,127.706093 105.437294,143.726685 111.179543,159.692001 
	C111.782066,161.367172 113.144684,163.870056 114.404144,164.030472 
	C123.071335,165.134583 131.804932,165.717453 140.915665,166.502319 
	C140.719376,164.692200 140.580322,163.409958 140.810287,161.235077 
	C140.896790,160.575424 141.058380,159.915863 141.059082,159.256119 
	C141.104599,116.635437 141.116486,74.014687 141.213089,31.394129 
	C141.220184,28.267536 139.868011,27.350279 137.006104,27.396238 
	C131.014053,27.492466 125.008087,27.642334 119.029419,27.341381 
	C114.759796,27.126455 113.689140,28.833202 113.732269,32.848675 
	C113.903923,48.829800 113.807182,64.814178 113.735443,80.797020 
	C113.727547,82.556915 113.241638,84.314667 112.838051,85.347870 
	C106.507622,67.459160 100.231468,49.550751 93.759636,31.713348 
	C93.138245,30.000692 91.358696,27.518459 90.015594,27.452442 
	C81.898407,27.053463 73.751762,27.253902 65.018318,27.253902 
	C65.291893,29.160736 65.493813,30.568171 65.261078,32.650608 
	C65.180519,35.987164 65.099968,39.323715 64.880241,43.556015 
z"/>
<path fill="#E30914" opacity="1.000000" stroke="none" 
	d="
M65.695740,31.975605 
	C65.493813,30.568171 65.291893,29.160736 65.018318,27.253902 
	C73.751762,27.253902 81.898407,27.053463 90.015594,27.452442 
	C91.358696,27.518459 93.138245,30.000692 93.759636,31.713348 
	C100.231468,49.550751 106.507622,67.459160 112.902435,86.091446 
	C120.108208,107.246323 127.187424,127.679749 134.436874,148.052582 
	C136.143677,152.849152 138.424530,157.441437 140.441284,162.127701 
	C140.580322,163.409958 140.719376,164.692200 140.915665,166.502319 
	C131.804932,165.717453 123.071335,165.134583 114.404144,164.030472 
	C113.144684,163.870056 111.782066,161.367172 111.179543,159.692001 
	C105.437294,143.726685 99.848755,127.706093 94.105484,110.960098 
	C91.002335,102.308762 88.009758,94.398712 85.079193,86.396492 
	C85.141197,86.304329 85.157784,86.082779 85.098099,85.689926 
	C82.364594,77.853233 79.690781,70.409393 76.968163,62.650490 
	C76.332352,60.997025 75.745354,59.658623 75.154282,57.978432 
	C75.112694,57.411877 75.075172,57.187107 74.966232,56.594826 
	C71.828445,48.143410 68.762093,40.059505 65.695740,31.975605 
z"/>
<path fill="#AD060F" opacity="1.000000" stroke="none" 
	d="
M140.625793,161.681396 
	C138.424530,157.441437 136.143677,152.849152 134.436874,148.052582 
	C127.187424,127.679749 120.108208,107.246323 112.972122,86.454224 
	C113.241638,84.314667 113.727547,82.556915 113.735443,80.797020 
	C113.807182,64.814178 113.903923,48.829800 113.732269,32.848675 
	C113.689140,28.833202 114.759796,27.126455 119.029419,27.341381 
	C125.008087,27.642334 131.014053,27.492466 137.006104,27.396238 
	C139.868011,27.350279 141.220184,28.267536 141.213089,31.394129 
	C141.116486,74.014687 141.104599,116.635437 141.059082,159.256119 
	C141.058380,159.915863 140.896790,160.575424 140.625793,161.681396 
z"/>
<path fill="#B0060F" opacity="1.000000" stroke="none" 
	d="
M91.084297,164.108002 
	C83.954285,164.750824 76.802734,165.220718 69.702858,166.105408 
	C65.835167,166.587357 64.727104,165.228973 64.765335,161.525772 
	C64.897766,148.697021 64.771690,135.865814 64.781456,123.035576 
	C64.801605,96.542381 64.845886,70.049202 65.235870,43.410213 
	C66.892181,45.928307 68.501595,48.487923 69.442436,51.273357 
	C74.730659,66.929626 79.719368,82.688370 85.139755,98.297737 
	C86.455505,102.086769 89.012192,105.444893 91.018745,109.435745 
	C91.444595,112.584602 91.849960,115.298889 92.255325,118.013168 
	C92.262581,130.021988 92.269836,142.030823 92.063187,154.865021 
	C91.594284,158.496262 91.339294,161.302124 91.084297,164.108002 
z"/>
<path fill="#98050D" opacity="1.000000" stroke="none" 
	d="
M90.998260,109.001160 
	C89.012192,105.444893 86.455505,102.086769 85.139755,98.297737 
	C79.719368,82.688370 74.730659,66.929626 69.442436,51.273357 
	C68.501595,48.487923 66.892181,45.928307 65.305450,42.962341 
	C65.099968,39.323715 65.180519,35.987164 65.478409,32.313107 
	C68.762093,40.059505 71.828445,48.143410 74.938751,56.761326 
	C75.041260,57.636967 75.099808,57.978592 75.158356,58.320217 
	C75.745354,59.658623 76.332352,60.997025 76.869308,62.975937 
	C77.983246,71.704834 79.636612,79.611588 85.157784,86.082779 
	C85.157784,86.082779 85.141197,86.304329 85.102165,86.853676 
	C85.429451,89.481651 85.610611,91.614304 86.198296,93.628334 
	C87.701759,98.780769 89.386200,103.880409 90.998260,109.001160 
z"/>
<path fill="#6E0309" opacity="1.000000" stroke="none" 
	d="
M91.018745,109.435745 
	C89.386200,103.880409 87.701759,98.780769 86.198296,93.628334 
	C85.610611,91.614304 85.429451,89.481651 85.040161,86.945839 
	C88.009758,94.398712 91.002335,102.308762 94.004814,110.601242 
	C93.517441,113.097839 93.020164,115.212013 92.389099,117.669678 
	C91.849960,115.298889 91.444595,112.584602 91.018745,109.435745 
z"/>
<path fill="#6E0309" opacity="1.000000" stroke="none" 
	d="
M91.408646,163.943710 
	C91.339294,161.302124 91.594284,158.496262 92.026520,155.330688 
	C92.046829,157.907135 91.889908,160.843277 91.408646,163.943710 
z"/>
<path fill="#8E050C" opacity="1.000000" stroke="none" 
	d="
M85.098099,85.689926 
	C79.636612,79.611588 77.983246,71.704834 76.918106,63.291000 
	C79.690781,70.409393 82.364594,77.853233 85.098099,85.689926 
z"/>
<path fill="#8E050C" opacity="1.000000" stroke="none" 
	d="
M75.154282,57.978432 
	C75.099808,57.978592 75.041260,57.636967 75.010185,57.128841 
	C75.075172,57.187107 75.112694,57.411877 75.154282,57.978432 
z"/>
</svg>